<svg version="1.1" id="Layer_1" xmlns="http://www.w3.org/2000/svg" xmlns:xlink="http://www.w3.org/1999/xlink" x="0px" y="0px"
	 width="100%" viewBox="0 0 736 144" enable-background="new 0 0 736 144" xml:space="preserve">
<path fill="#000000" opacity="1.000000" stroke="none" 
	d="
M422.157959,65.821106 
	C417.565430,62.111782 412.573090,59.803200 407.634888,57.387329 
	C405.769043,56.474529 402.980255,55.884327 403.694397,53.072460 
	C404.294495,50.709541 407.025055,51.083527 408.840576,50.987633 
	C421.532562,50.317230 434.073608,51.582611 446.446289,54.473225 
	C455.074585,56.489044 463.355042,59.442463 471.126526,63.753761 
	C473.326141,64.974045 475.494568,66.245407 476.997894,68.309227 
	C479.673462,71.982323 478.591980,75.913101 474.002045,78.037697 
	C466.503632,81.508553 458.351288,82.559914 450.258698,83.226433 
	C444.504517,83.700356 438.635742,83.911751 432.847321,83.052025 
	C433.103333,74.984123 427.285980,70.816017 422.157959,65.821106 
M423.010468,54.020542 
	C418.903961,53.152561 414.907166,54.153553 409.330353,54.439556 
	C414.442169,57.255379 418.000824,61.348724 422.168976,60.712227 
	C425.515991,60.201130 426.238647,61.316277 427.383606,63.280087 
	C430.310577,68.300446 433.195038,73.327774 436.953217,77.820541 
	C438.004425,79.077225 438.966492,79.805557 440.563721,80.030022 
	C450.445221,81.418633 460.080261,80.037071 469.562897,77.370567 
	C472.063934,76.667282 475.069244,75.673279 475.375183,72.604698 
	C475.659332,69.754570 472.946533,68.469673 470.858582,67.165855 
	C456.490021,58.193462 440.467102,55.124397 423.010468,54.020542 
z"/>
<path fill="#000000" opacity="1.000000" stroke="none" 
	d="
M254.329407,83.629753 
	C265.189575,80.241516 274.394745,74.282318 284.138367,69.435020 
	C283.336029,66.658783 281.114227,66.801430 279.679382,65.883011 
	C275.108826,62.957462 274.510864,58.774334 278.463776,55.134769 
	C282.791748,51.149925 288.162231,49.136528 293.899780,48.848564 
	C300.726105,48.505951 303.040222,52.655724 299.423798,58.518974 
	C297.618073,61.446583 295.086365,63.926426 292.645813,66.897591 
	C296.597107,69.418747 301.028229,70.281570 305.029755,72.102585 
	C308.201599,73.546005 313.320312,74.018684 312.800629,78.545860 
	C312.270691,83.162491 307.374054,82.967133 303.595551,83.549446 
	C296.381287,84.661224 289.199371,85.982071 281.996155,87.168167 
	C281.066803,87.321198 280.090454,87.189125 278.880249,87.189125 
	C279.228058,84.653481 281.081696,84.753792 282.573517,84.493378 
	C289.611359,83.264908 296.661743,82.108322 303.698669,80.874954 
	C305.266266,80.600197 307.339294,80.788498 307.612335,78.556824 
	C307.894592,76.249870 306.001801,75.421104 304.290710,74.759445 
	C300.252380,73.197830 296.094055,71.927444 292.122986,70.217163 
	C289.293823,68.998680 287.261108,70.425446 285.155212,71.661331 
	C276.955750,76.473381 268.355560,80.489143 259.805450,84.608078 
	C257.371338,85.780693 254.813507,86.693924 252.114334,86.449852 
	C249.236771,86.189636 247.856796,84.838104 249.922150,81.768471 
	C251.379547,82.435455 252.676407,83.028961 254.329407,83.629753 
M295.979584,55.962669 
	C296.275024,54.966583 296.458679,54.106022 295.210693,53.480850 
	C290.846191,51.294472 282.000702,55.276196 280.677673,60.053406 
	C280.336182,61.286537 280.461792,62.282146 281.442719,63.209888 
	C284.588043,66.184647 289.442230,65.922928 292.388672,62.666695 
	C293.996460,60.889835 294.906006,58.776253 295.979584,55.962669 
z"/>
<path fill="#000000" opacity="1.000000" stroke="none" 
	d="
M340.482697,75.011047 
	C341.414520,77.953003 343.078430,79.287766 345.845093,78.570557 
	C349.526886,77.616112 353.433624,78.160164 357.042725,76.560402 
	C360.333679,75.101669 363.245819,76.575714 365.750519,78.678619 
	C367.708221,80.322266 369.428284,80.440338 371.573242,79.003441 
	C374.963318,76.732407 379.055450,76.557938 382.901031,75.723000 
	C384.513824,75.372849 386.352142,75.484627 387.613861,76.765541 
	C390.111816,79.301544 392.628265,81.811096 395.962799,84.107468 
	C393.131348,85.783768 390.809418,84.770256 389.785767,83.202400 
	C384.680420,75.382721 378.386230,79.511650 372.729218,81.606262 
	C369.472260,82.812218 366.893311,83.715271 364.014191,81.396828 
	C363.758942,81.191269 363.311035,80.851135 363.166077,80.936401 
	C357.905029,84.031418 352.924530,79.337036 347.740112,80.405342 
	C344.967377,80.976700 343.213196,81.895195 343.946686,85.407295 
	C344.803741,89.511070 344.304932,93.710251 343.027985,97.718323 
	C342.473846,99.457680 341.522247,101.261436 339.212616,100.933144 
	C337.302826,100.661674 336.549225,99.132965 336.235168,97.378067 
	C335.399963,92.711205 335.410431,88.132851 337.419922,83.693588 
	C338.005829,82.399284 339.066711,81.093010 337.977478,79.242020 
	C332.127594,79.538521 326.109222,77.536491 320.147095,79.878952 
	C318.822693,80.399292 317.469604,80.090919 316.742432,78.648109 
	C316.046143,77.266579 316.519348,76.045395 317.513794,75.016006 
	C321.428833,70.963448 324.705170,73.703331 327.591461,75.998550 
	C329.822021,76.191658 330.102875,73.987923 331.936279,73.631851 
	C333.642731,74.456512 335.534424,76.293259 337.791321,73.900337 
	C338.547119,73.098961 339.648407,73.825813 340.482697,75.011047 
z"/>
<path fill="#000000" opacity="1.000000" stroke="none" 
	d="
M502.682129,86.852852 
	C510.101257,88.391518 517.492188,86.991623 525.284729,90.039551 
	C520.320251,92.006485 516.031799,91.081764 512.284790,90.627968 
	C504.196655,89.648415 496.075714,89.923882 488.018433,89.031494 
	C485.872070,88.793762 483.740265,88.565941 481.815613,87.393288 
	C477.657867,84.860001 477.129456,80.685081 480.944794,77.612495 
	C484.935272,74.398880 489.684509,72.928101 494.836060,72.928619 
	C496.649353,72.928802 498.231110,73.541489 498.549652,75.523575 
	C498.876434,77.557068 497.373688,78.527657 495.751862,79.118378 
	C491.393646,80.705772 486.755646,80.721138 481.852081,81.095482 
	C482.756927,85.571930 485.995239,86.305405 489.261139,86.534111 
	C493.563904,86.835449 497.895050,86.731209 502.682129,86.852852 
z"/>
</svg>