<?xml version="1.0" standalone="no"?>
<!DOCTYPE svg PUBLIC "-//W3C//DTD SVG 20010904//EN"
 "http://www.w3.org/TR/2001/REC-SVG-20010904/DTD/svg10.dtd">
<svg version="1.0" xmlns="http://www.w3.org/2000/svg"
 width="300.000000pt" height="170.000000pt" viewBox="0 0 300.000000 170.000000"
 preserveAspectRatio="xMidYMid meet">
<metadata>
Created by potrace 1.10, written by Peter Selinger 2001-2011
</metadata>
<g transform="translate(0.000000,170.000000) scale(0.100000,-0.100000)"
fill="#000000" stroke="none">
<path d="M1795 1202 c-45 -9 -78 -21 -75 -27 2 -5 42 -24 88 -41 95 -36 130
-59 191 -126 38 -42 41 -48 22 -48 -11 0 -21 -4 -21 -10 0 -24 249 30 344 75
62 29 72 42 62 80 -8 30 -56 56 -157 86 -104 30 -341 36 -454 11z m305 -2
c116 -12 245 -49 278 -80 25 -24 19 -47 -21 -73 -32 -21 -180 -65 -243 -73
-52 -6 -52 -6 -95 41 -24 26 -57 64 -73 86 -32 41 -46 49 -46 25 0 -10 -19 -6
-75 17 -41 17 -72 33 -69 36 6 6 158 27 210 30 18 0 78 -4 134 -9z"/>
<path d="M2532 1100 c-19 -4 -39 -13 -45 -20 -10 -10 -7 -11 13 -6 14 4 36 10
50 12 24 5 24 4 -4 -11 -17 -10 -40 -15 -56 -11 -32 6 -60 -18 -60 -53 0 -16
10 -26 34 -36 34 -14 157 -9 331 14 l60 8 -57 2 c-32 0 -114 -4 -183 -10 -112
-10 -128 -10 -151 6 -20 13 -23 19 -13 31 6 8 26 14 43 14 39 0 101 30 101 50
0 18 -19 21 -63 10z"/>
<path d="M662 1053 c-18 -8 -46 -31 -62 -49 -40 -46 -30 -73 35 -95 l49 -15
-130 -91 c-71 -49 -141 -92 -157 -95 -27 -5 -27 -5 -12 19 16 24 16 24 -4 13
-12 -6 -21 -20 -21 -32 0 -18 4 -20 35 -15 32 5 169 93 268 171 l38 30 87 -18
c80 -16 119 -37 107 -57 -3 -4 -51 -22 -108 -39 -134 -41 -157 -50 -157 -62 0
-6 8 -7 18 -3 9 3 72 24 139 46 134 44 163 66 121 93 -25 16 -134 46 -167 46
-27 0 -27 0 9 57 18 28 30 60 30 80 0 32 -1 33 -42 33 -24 0 -58 -8 -76 -17z
m93 -35 c-4 -18 -18 -50 -31 -71 -23 -35 -28 -38 -57 -31 -70 15 -79 41 -33
93 26 29 51 40 94 40 33 1 33 0 27 -31z"/>
<path d="M1510 925 c-25 -13 -55 -29 -67 -36 -19 -10 -26 -9 -41 4 -19 18 -63
23 -76 10 -4 -5 -29 -13 -54 -20 -26 -6 -56 -14 -68 -18 -16 -5 -23 0 -33 22
-12 27 -13 27 -27 8 -12 -16 -18 -18 -34 -7 -26 16 -30 15 -30 -3 0 -17 -35
-21 -45 -5 -9 15 -51 12 -65 -5 -25 -30 10 -61 39 -32 11 11 40 16 100 17 13
0 30 5 37 11 20 17 28 -11 15 -56 -20 -72 21 -186 51 -143 10 14 5 132 -7 160
-9 24 87 53 115 36 15 -10 23 -9 40 7 16 14 23 16 32 7 16 -16 50 -15 74 3 10
8 26 15 35 15 9 0 22 7 29 15 18 22 47 18 84 -10 18 -14 44 -25 57 -24 l24 0
-23 9 c-13 6 -38 21 -56 35 -40 30 -49 30 -106 0z m-312 -162 c11 -63 0 -94
-18 -49 -12 34 -13 106 -1 106 5 0 14 -26 19 -57z"/>
</g>
</svg>
