<?xml version="1.0" encoding="UTF-8"?>
<svg xmlns="http://www.w3.org/2000/svg" xmlns:xlink="http://www.w3.org/1999/xlink" width="48px" height="48px" viewBox="0 0 48 48" version="1.1">
<g id="surface1">
<path style=" stroke:none;fill-rule:nonzero;fill:rgb(0%,17.254902%,29.411765%);fill-opacity:1;" d="M 37.964844 15.496094 C 38.746094 11.710938 38.914062 8.808594 38.410156 6.703125 C 38.109375 5.449219 37.558594 4.425781 36.722656 3.6875 C 35.84375 2.910156 34.726562 2.527344 33.476562 2.527344 C 31.410156 2.527344 29.238281 3.46875 26.917969 5.253906 C 25.96875 5.984375 24.988281 6.863281 23.964844 7.894531 C 23.886719 7.789062 23.792969 7.691406 23.691406 7.597656 C 20.804688 5.03125 18.378906 3.433594 16.300781 2.820312 C 15.066406 2.453125 13.90625 2.417969 12.847656 2.773438 C 11.734375 3.148438 10.847656 3.925781 10.21875 5.007812 C 9.183594 6.800781 8.914062 9.152344 9.296875 12.058594 C 9.457031 13.242188 9.722656 14.53125 10.101562 15.929688 C 9.960938 15.949219 9.816406 15.980469 9.675781 16.027344 C 6.015625 17.238281 3.421875 18.542969 1.851562 20.03125 C 0.917969 20.917969 0.308594 21.902344 0.0898438 22.996094 C -0.144531 24.148438 0.0820312 25.304688 0.710938 26.386719 C 1.742188 28.175781 3.640625 29.585938 6.34375 30.703125 C 7.429688 31.152344 8.660156 31.558594 10.03125 31.921875 C 9.96875 32.066406 9.921875 32.214844 9.886719 32.371094 C 9.105469 36.15625 8.9375 39.058594 9.445312 41.167969 C 9.742188 42.421875 10.292969 43.445312 11.128906 44.179688 C 12.007812 44.960938 13.125 45.34375 14.375 45.34375 C 16.441406 45.34375 18.613281 44.402344 20.933594 42.613281 C 21.890625 41.875 22.886719 40.988281 23.917969 39.941406 C 24.023438 40.109375 24.15625 40.261719 24.308594 40.402344 C 27.195312 42.96875 29.621094 44.566406 31.699219 45.179688 C 32.933594 45.546875 34.09375 45.582031 35.152344 45.226562 C 36.265625 44.851562 37.152344 44.074219 37.78125 42.992188 C 38.816406 41.199219 39.085938 38.847656 38.703125 35.941406 C 38.539062 34.714844 38.257812 33.375 37.855469 31.917969 C 38.011719 31.902344 38.167969 31.867188 38.324219 31.816406 C 41.984375 30.605469 44.578125 29.300781 46.148438 27.8125 C 47.082031 26.925781 47.691406 25.941406 47.910156 24.847656 C 48.144531 23.695312 47.917969 22.539062 47.289062 21.457031 C 46.257812 19.667969 44.359375 18.257812 41.65625 17.140625 C 40.539062 16.679688 39.269531 16.261719 37.847656 15.886719 C 37.894531 15.761719 37.9375 15.632812 37.964844 15.496094 Z M 37.964844 15.496094 "/>
<path style=" stroke:none;fill-rule:evenodd;fill:rgb(100%,85.098039%,29.803922%);fill-opacity:1;" d="M 20.3125 16.167969 L 27.691406 16.167969 C 28.144531 16.167969 28.5625 16.410156 28.785156 16.804688 L 32.484375 23.246094 C 32.707031 23.632812 32.707031 24.113281 32.484375 24.503906 L 28.785156 30.945312 C 28.5625 31.335938 28.144531 31.578125 27.691406 31.578125 L 20.3125 31.578125 C 19.859375 31.578125 19.441406 31.335938 19.214844 30.945312 L 15.519531 24.503906 C 15.296875 24.113281 15.296875 23.632812 15.519531 23.246094 L 19.214844 16.804688 C 19.441406 16.410156 19.859375 16.167969 20.3125 16.167969 Z M 26.777344 17.753906 C 27.230469 17.753906 27.648438 17.996094 27.871094 18.390625 L 30.65625 23.246094 C 30.878906 23.632812 30.878906 24.113281 30.65625 24.5 L 27.871094 29.359375 C 27.648438 29.75 27.230469 29.992188 26.777344 29.992188 L 21.226562 29.992188 C 20.773438 29.992188 20.355469 29.75 20.128906 29.359375 L 17.347656 24.5 C 17.125 24.113281 17.125 23.632812 17.347656 23.246094 L 20.128906 18.390625 C 20.355469 17.996094 20.773438 17.753906 21.226562 17.753906 Z M 25.789062 19.488281 L 22.210938 19.488281 C 21.761719 19.488281 21.34375 19.730469 21.117188 20.121094 L 19.324219 23.246094 C 19.101562 23.632812 19.101562 24.113281 19.324219 24.503906 L 21.117188 27.625 C 21.34375 28.015625 21.761719 28.257812 22.210938 28.257812 L 25.789062 28.257812 C 26.242188 28.257812 26.660156 28.015625 26.882812 27.625 L 28.675781 24.503906 C 28.902344 24.113281 28.902344 23.632812 28.675781 23.246094 L 26.882812 20.121094 C 26.660156 19.730469 26.242188 19.488281 25.789062 19.488281 Z M 24.839844 21.148438 C 25.289062 21.148438 25.707031 21.390625 25.933594 21.78125 L 26.773438 23.242188 C 27 23.632812 27 24.113281 26.773438 24.503906 L 25.933594 25.964844 C 25.707031 26.359375 25.289062 26.597656 24.839844 26.597656 L 23.164062 26.597656 C 22.710938 26.597656 22.292969 26.359375 22.066406 25.964844 L 21.226562 24.503906 C 21.003906 24.113281 21.003906 23.632812 21.226562 23.242188 L 22.066406 21.78125 C 22.292969 21.390625 22.710938 21.148438 23.164062 21.148438 Z M 24 22.785156 C 23.609375 22.785156 23.25 22.992188 23.054688 23.328125 C 22.859375 23.664062 22.859375 24.082031 23.054688 24.417969 C 23.25 24.757812 23.609375 24.964844 24 24.964844 C 24.390625 24.964844 24.75 24.757812 24.945312 24.417969 C 25.140625 24.082031 25.140625 23.664062 24.945312 23.328125 C 24.75 22.992188 24.390625 22.785156 24 22.785156 Z M 15.15625 23.875 L 17.121094 23.875 "/>
<path style=" stroke:none;fill-rule:evenodd;fill:rgb(100%,25.490196%,32.941176%);fill-opacity:1;" d="M 13.859375 27.375 C 14.191406 27.183594 14.609375 27.304688 14.796875 27.636719 L 14.917969 27.851562 C 15.878906 29.554688 16.878906 31.167969 17.921875 32.699219 C 19.152344 34.503906 20.535156 36.335938 22.070312 38.183594 C 22.3125 38.476562 22.277344 38.90625 21.996094 39.15625 L 21.839844 39.292969 C 16.761719 43.730469 13.460938 44.617188 11.9375 41.953125 C 10.445312 39.34375 10.984375 34.605469 13.554688 27.734375 C 13.609375 27.582031 13.71875 27.453125 13.859375 27.375 Z M 35.503906 32.601562 C 35.871094 32.535156 36.222656 32.777344 36.292969 33.144531 L 36.332031 33.34375 C 37.585938 39.914062 36.703125 43.199219 33.679688 43.199219 C 30.722656 43.199219 26.957031 40.398438 22.386719 34.792969 C 22.285156 34.667969 22.230469 34.515625 22.230469 34.351562 C 22.234375 33.972656 22.542969 33.667969 22.921875 33.671875 L 23.164062 33.675781 C 25.085938 33.683594 26.960938 33.617188 28.777344 33.472656 C 30.925781 33.304688 33.167969 33.011719 35.503906 32.601562 Z M 37.238281 18.648438 C 37.371094 18.292969 37.769531 18.105469 38.136719 18.226562 L 38.335938 18.292969 C 44.863281 20.519531 47.34375 22.960938 45.777344 25.625 C 44.242188 28.230469 39.785156 30.128906 32.402344 31.316406 C 32.238281 31.34375 32.070312 31.3125 31.929688 31.230469 C 31.589844 31.035156 31.476562 30.609375 31.675781 30.277344 L 31.804688 30.066406 C 32.8125 28.375 33.722656 26.691406 34.535156 25.015625 C 35.496094 23.039062 36.398438 20.914062 37.238281 18.648438 Z M 15.597656 16.683594 C 15.761719 16.65625 15.929688 16.6875 16.070312 16.769531 C 16.410156 16.964844 16.523438 17.390625 16.324219 17.722656 L 16.195312 17.933594 C 15.1875 19.625 14.277344 21.308594 13.464844 22.984375 C 12.503906 24.960938 11.601562 27.085938 10.761719 29.351562 C 10.628906 29.707031 10.230469 29.894531 9.863281 29.773438 L 9.664062 29.707031 C 3.136719 27.480469 0.65625 25.039062 2.222656 22.375 C 3.757812 19.769531 8.214844 17.871094 15.597656 16.683594 Z M 26.160156 8.707031 C 31.238281 4.269531 34.539062 3.382812 36.0625 6.046875 C 37.554688 8.65625 37.015625 13.394531 34.445312 20.265625 C 34.390625 20.417969 34.28125 20.546875 34.140625 20.625 C 33.808594 20.816406 33.390625 20.695312 33.203125 20.363281 L 33.082031 20.148438 C 32.121094 18.445312 31.121094 16.832031 30.078125 15.300781 C 28.847656 13.496094 27.464844 11.664062 25.929688 9.816406 C 25.6875 9.523438 25.722656 9.09375 26.003906 8.84375 Z M 14.574219 4.546875 C 17.53125 4.546875 21.292969 7.347656 25.867188 12.953125 C 25.96875 13.078125 26.023438 13.234375 26.019531 13.394531 C 26.019531 13.773438 25.707031 14.078125 25.332031 14.074219 L 25.089844 14.074219 C 23.164062 14.0625 21.292969 14.128906 19.476562 14.273438 C 17.328125 14.445312 15.085938 14.734375 12.75 15.148438 C 12.382812 15.210938 12.03125 14.96875 11.960938 14.605469 L 11.921875 14.402344 C 10.664062 7.832031 11.550781 4.546875 14.574219 4.546875 Z M 14.574219 4.546875 "/>
</g>
</svg>
