<svg  viewBox="0 0 64 64" xmlns="http://www.w3.org/2000/svg" width="48px" height="48px"><g fill="none" fill-rule="evenodd"><path d="m2 11.9948028c0-2.20626867 1.79568082-3.9948028 4.0065556-3.9948028h52.997507c1.6546105 0 2.9959374 1.33870834 2.9959374 2.996524v34.003476h-60z" fill="#0a3586"/><circle cx="22" cy="41" fill="#e43535" r="2"/><circle cx="27" cy="41" fill="#5ea7ff" r="2"/><circle cx="32" cy="41" fill="#ffdd95" r="2"/><circle cx="37" cy="41" fill="#80d25b" r="2"/><circle cx="42" cy="41" fill="#b4dffb" r="2"/><path d="m2 45h60v4.9983345c0 1.6577741-1.3373097 3.0016655-2.9959374 3.0016655h-54.00812517c-1.65461055 0-2.99593743-1.3390201-2.99593743-3.0016655z" fill="#d8d8d8"/><circle cx="32" cy="49" fill="#979797" r="2"/><path d="m25.6128012 53h12l1.5660298 7.047134c.2396751 1.0785381-.4605435 1.952866-1.5600901 1.952866h-12.0118794c-1.1012891 0-1.7986504-.8793447-1.5600901-1.952866z" fill="#979797"/><g stroke="#0a3586" stroke-width="2"><circle cx="32" cy="17" fill="#b4dffb" r="14" stroke-linecap="round"/><path d="m45 17h-26" stroke-linecap="square"/><path d="m32 31c3.3137085 0 6.0385294-6.5441559 6.0385294-14 0-7.45584412-2.7248209-14-6.0385294-14s-5.9614706 6.54415588-5.9614706 14c0 7.4558441 2.6477621 14 5.9614706 14z" stroke-linecap="round"/></g></g></svg>