<svg enable-background="new 0 0 512 512" viewBox="0 0 512 512" xmlns="http://www.w3.org/2000/svg" width="48px" height="48px"><path d="m8.892 378.138h135.837v125.78h-135.837z" fill="#eae8e8"/><path d="m188.083 378.138h135.837v125.78h-135.837z" fill="#eae8e8"/><path d="m367.273 378.138h135.837v125.78h-135.837z" fill="#eae8e8"/><path d="m8.892 378.138h25.295v125.78h-25.295z" fill="#231f20" opacity=".1"/><path d="m188.083 378.138h25.295v125.78h-25.295z" fill="#231f20" opacity=".1"/><path d="m367.273 378.138h25.295v125.78h-25.295z" fill="#231f20" opacity=".1"/><path d="m8.892 378.138h135.837v33.393h-135.837z" fill="#6ac6d8"/><path d="m188.083 378.138h135.837v33.393h-135.837z" fill="#6ac6d8"/><path d="m367.273 378.138h135.837v33.393h-135.837z" fill="#6ac6d8"/><path d="m367.273 378.138h31.996v33.393h-31.996z" fill="#6ba9d6"/><path d="m188.083 378.138h31.996v33.393h-31.996z" fill="#6ba9d6"/><path d="m8.892 378.138h31.996v33.393h-31.996z" fill="#6ba9d6"/><path d="m440.224 283.572h14.748c26.585 0 48.137-21.552 48.137-48.137s-21.551-48.137-48.137-48.137h-31.933c7.141-12.956 11.214-27.842 11.214-43.682 0-50.055-40.579-90.632-90.632-90.632-20.644 0-39.668 6.916-54.906 18.539-16.938-37.412-54.598-63.439-98.337-63.439-59.585 0-107.891 48.304-107.891 107.891 0 6.993.674 13.829 1.946 20.453-.648-.017-1.292-.051-1.946-.051-40.647 0-73.596 32.951-73.596 73.598s32.949 73.596 73.596 73.596h26.824 24.695 243.987 25.933 10.428" fill="#6ac6d8"/><path d="m190.379 8.084c-59.585 0-107.891 48.304-107.891 107.891 0 6.993.674 13.829 1.946 20.453-.648-.017-1.292-.051-1.946-.051-40.647 0-73.596 32.951-73.596 73.598s32.949 73.596 73.596 73.596h25.883c-40.647 0-73.596-32.949-73.596-73.596 0-35.014 24.46-64.299 57.221-71.746l-.02-.017s.087-.011.235-.032c.532-.12 1.061-.248 1.597-.356 4.055-1.124 13.509-5.328 14.579-20.186 0 0 .002-.017.002-.026-.009-.544-.019-1.089-.019-1.636 0-55.2 41.456-100.71 94.93-107.113-4.237-.507-8.546-.779-12.921-.779z" fill="#231f20" opacity=".1"/><circle cx="188.083" cy="217.035" fill="#fff" r="16.168"/><circle cx="256.001" cy="217.035" fill="#fff" r="16.168"/><circle cx="323.92" cy="217.035" fill="#fff" r="16.168"/><g fill="#231f20"><path d="m355.496 80.584c-4.381-.898-8.646 1.925-9.542 6.299-.895 4.375 1.925 8.646 6.299 9.542 22.255 4.554 38.409 24.378 38.409 47.137 0 4.466 3.618 8.084 8.084 8.084s8.084-3.618 8.084-8.084c0-30.406-21.59-56.892-51.334-62.978z"/><path d="m503.108 370.048h-76.261v-50.213c0-4.466-3.618-8.084-8.084-8.084h-86.76v-20.095h82.349c4.466 0 8.084-3.618 8.084-8.084s-3.618-8.084-8.084-8.084h-82.349v-35.59c9.409-3.337 16.168-12.324 16.168-22.862 0-13.372-10.88-24.253-24.253-24.253-13.372 0-24.253 10.88-24.253 24.253 0 10.539 6.759 19.525 16.168 22.862v35.591h-51.75v-35.591c9.409-3.337 16.168-12.324 16.168-22.862 0-13.372-10.88-24.253-24.253-24.253-13.372 0-24.253 10.88-24.253 24.253 0 10.539 6.76 19.525 16.168 22.862v35.591h-51.75v-35.591c9.409-3.337 16.168-12.324 16.168-22.862 0-13.372-10.88-24.253-24.253-24.253s-24.253 10.88-24.253 24.253c0 10.539 6.76 19.525 16.168 22.862v35.591h-97.51c-36.124 0-65.511-29.389-65.511-65.511 0-36.125 29.389-65.514 65.511-65.514.341 0 .679.014 1.016.025l.719.023c2.449.078 4.791-.985 6.374-2.852 1.585-1.866 2.237-4.349 1.774-6.754-1.194-6.222-1.8-12.591-1.8-18.928.001-55.035 44.774-99.808 99.808-99.808 39.121 0 74.83 23.037 90.973 58.688 1.015 2.243 2.999 3.902 5.387 4.505 2.391.599 4.922.083 6.88-1.412 14.479-11.044 31.77-16.882 50.003-16.882 45.518 0 82.548 37.03 82.548 82.548 0 13.905-3.53 27.661-10.211 39.78-1.38 2.504-1.334 5.551.119 8.014 1.455 2.462 4.101 3.973 6.961 3.973h31.933c22.085 0 40.053 17.968 40.053 40.053s-17.967 40.053-40.053 40.053h-14.748c-4.465 0-8.084 3.619-8.084 8.084 0 4.466 3.62 8.084 8.084 8.084h14.748c31 0 56.221-25.221 56.221-56.221s-25.221-56.221-56.221-56.221h-19.27c4.363-11.305 6.636-23.406 6.636-35.598 0-54.432-44.284-98.716-98.716-98.716-18.561 0-36.308 5.06-51.86 14.713-20.328-36.507-59.141-59.615-101.378-59.615-63.949 0-115.976 52.027-115.976 115.976 0 4.218.231 8.447.69 12.649-41.585 3.75-74.286 38.804-74.286 81.351 0 45.039 36.641 81.68 81.68 81.68h97.51v20.095h-86.76c-4.466 0-8.084 3.618-8.084 8.084v50.213h-44.265-31.996c-4.466 0-8.084 3.62-8.084 8.084v33.393 92.39c0 4.466 3.619 8.084 8.084 8.084h135.838c4.466 0 8.084-3.618 8.084-8.084v-92.39-33.393c0-4.465-3.619-8.084-8.084-8.084h-43.408v-42.128h86.76c4.466 0 8.084-3.618 8.084-8.084v-28.18h51.75v78.392h-27.838-31.996c-4.466 0-8.084 3.62-8.084 8.084v33.393 92.39c0 4.466 3.618 8.084 8.084 8.084h135.837c4.466 0 8.084-3.618 8.084-8.084v-92.39-33.393c0-4.465-3.618-8.084-8.084-8.084h-59.834v-78.392h51.75v28.18c0 4.466 3.618 8.084 8.084 8.084h86.76v42.129h-11.413-31.996c-4.466 0-8.084 3.62-8.084 8.084v33.393 92.39c0 4.466 3.618 8.084 8.084 8.084h135.839c4.466 0 8.084-3.618 8.084-8.084v-92.39-33.393c0-4.466-3.619-8.085-8.085-8.085zm-179.19-161.097c4.458 0 8.084 3.626 8.084 8.084s-3.626 8.084-8.084 8.084-8.084-3.626-8.084-8.084 3.626-8.084 8.084-8.084zm-67.918 0c4.458 0 8.084 3.626 8.084 8.084s-3.626 8.084-8.084 8.084-8.084-3.626-8.084-8.084 3.626-8.084 8.084-8.084zm-67.918 0c4.458 0 8.084 3.626 8.084 8.084s-3.626 8.084-8.084 8.084-8.084-3.626-8.084-8.084 3.626-8.084 8.084-8.084zm-171.106 177.266h15.828v17.225h-15.828zm0 109.615v-76.222h23.912 95.758v76.221h-119.67zm119.67-92.39h-87.674v-17.225h87.674zm59.52-17.225h15.828v17.225h-15.828zm0 109.615v-76.222h23.912 95.756v76.221h-119.668zm119.668-92.39h-87.672v-17.225h87.672zm179.19 0h-87.674v-17.225h87.674zm-119.669-17.225h15.828v17.225h-15.828zm0 109.615v-76.222h23.912 95.758v76.221h-119.67z"/><path d="m113.461 435.096h-73.297c-4.466 0-8.084 3.618-8.084 8.084s3.619 8.084 8.084 8.084h73.297c4.466 0 8.084-3.618 8.084-8.084 0-4.465-3.62-8.084-8.084-8.084z"/><path d="m113.461 463.804h-73.297c-4.466 0-8.084 3.618-8.084 8.084s3.619 8.084 8.084 8.084h73.297c4.466 0 8.084-3.618 8.084-8.084 0-4.464-3.62-8.084-8.084-8.084z"/><path d="m292.649 435.096h-73.297c-4.466 0-8.084 3.618-8.084 8.084s3.618 8.084 8.084 8.084h73.297c4.466 0 8.084-3.618 8.084-8.084 0-4.465-3.619-8.084-8.084-8.084z"/><path d="m292.649 463.804h-73.297c-4.466 0-8.084 3.618-8.084 8.084s3.618 8.084 8.084 8.084h73.297c4.466 0 8.084-3.618 8.084-8.084 0-4.464-3.619-8.084-8.084-8.084z"/><path d="m471.839 435.096h-73.297c-4.466 0-8.084 3.618-8.084 8.084s3.618 8.084 8.084 8.084h73.297c4.466 0 8.084-3.618 8.084-8.084 0-4.465-3.619-8.084-8.084-8.084z"/><path d="m471.839 463.804h-73.297c-4.466 0-8.084 3.618-8.084 8.084s3.618 8.084 8.084 8.084h73.297c4.466 0 8.084-3.618 8.084-8.084 0-4.464-3.619-8.084-8.084-8.084z"/></g></svg>