<svg enable-background="new 0 0 256 256" viewBox="0 0 256 256" xmlns="http://www.w3.org/2000/svg" width="48px" height="48px"><path d="m233 247.529h-210c-8.284 0-15-6.716-15-15v-5.75c0-2.761 2.239-5 5-5h230c2.761 0 5 2.239 5 5v5.75c0 8.285-6.716 15-15 15z" fill="#afafaf"/><path d="m235.5 98.196v123.58h-215v-123.58c0-8.284 6.716-15 15-15h31.16c-2.03 3.8-3.71 7.81-5.01 12-.91 2.94-1.63 5.97-2.15 9.06h-8.1c-1.539 0-2.818 1.164-2.989 2.694-.655 5.856-.655 11.921-.001 17.763.171 1.529 1.451 2.693 2.989 2.693h8.101c1.76 10.56 5.91 20.31 11.88 28.68l-5.735 5.728c-1.091 1.09-1.171 2.823-.206 4.025 3.715 4.63 7.928 8.843 12.558 12.558 1.203.965 2.936.885 4.025-.206l5.728-5.735c8.37 5.96 18.11 10.12 28.67 11.88v8.099c0 1.538 1.163 2.819 2.692 2.989 5.784.646 11.819.664 17.771 0 1.53-.171 2.697-1.45 2.697-2.989v-8.099c10.56-1.76 20.3-5.92 28.67-11.88l5.728 5.735c1.09 1.091 2.823 1.171 4.025.206 4.63-3.715 8.843-7.928 12.558-12.558.965-1.203.885-2.936-.206-4.025l-5.735-5.728c5.97-8.37 10.12-18.12 11.88-28.68h8.101c1.539 0 2.818-1.164 2.989-2.693.653-5.837.655-11.902-.001-17.763-.171-1.529-1.451-2.694-2.989-2.694h-8.1c-.52-3.09-1.24-6.12-2.15-9.06-1.3-4.19-2.98-8.2-5.01-12h31.16c8.284 0 15 6.716 15 15z" fill="#afafaf"/><path d="m223.5 100.196v121.58h-191v-121.58c0-2.761 2.239-5 5-5h24.15c-.91 2.94-1.63 5.97-2.15 9.06h-8.1c-1.539 0-2.818 1.164-2.989 2.694-.655 5.856-.655 11.921-.001 17.763.171 1.529 1.451 2.693 2.989 2.693h8.101c1.76 10.56 5.91 20.31 11.88 28.68l-5.735 5.728c-1.091 1.09-1.171 2.823-.206 4.025 3.715 4.63 7.928 8.843 12.558 12.558 1.203.965 2.936.885 4.025-.206l5.728-5.735c8.37 5.96 18.11 10.12 28.67 11.88v8.099c0 1.538 1.163 2.819 2.692 2.989 5.784.646 11.819.664 17.771 0 1.53-.171 2.697-1.45 2.697-2.989v-8.099c10.56-1.76 20.3-5.92 28.67-11.88l5.728 5.735c1.09 1.091 2.823 1.171 4.025.206 4.63-3.715 8.843-7.928 12.558-12.558.965-1.203.885-2.936-.206-4.025l-5.735-5.728c5.97-8.37 10.12-18.12 11.88-28.68h8.101c1.539 0 2.818-1.164 2.989-2.693.653-5.837.655-11.902-.001-17.763-.171-1.529-1.451-2.694-2.989-2.694h-8.1c-.52-3.09-1.24-6.12-2.15-9.06h24.15c2.761 0 5 2.239 5 5z" fill="#f0c020"/><path d="m213.5 214.276h-156.63c-1.381 0-2.5-1.119-2.5-2.5s1.119-2.5 2.5-2.5h154.13v-71.87c0-1.381 1.119-2.5 2.5-2.5s2.5 1.119 2.5 2.5v74.37c0 1.381-1.119 2.5-2.5 2.5zm-166.63 0h-4.37c-1.381 0-2.5-1.119-2.5-2.5s1.119-2.5 2.5-2.5h4.37c1.381 0 2.5 1.119 2.5 2.5s-1.119 2.5-2.5 2.5z" fill="#f8e5b0"/><path d="m151 234.654h-46c-2.761 0-5-2.239-5-5v-7.875h56v7.875c0 2.762-2.239 5-5 5z" fill="#7d7b79"/><path d="m204.601 127.406h-8.101c-1.76 10.56-5.91 20.31-11.88 28.68l5.735 5.728c1.091 1.09 1.171 2.823.206 4.025-3.715 4.63-7.928 8.843-12.558 12.558-1.203.965-2.936.885-4.025-.206l-5.728-5.735c-8.37 5.96-18.11 10.12-28.67 11.88v8.099c0 1.54-1.167 2.819-2.697 2.989-5.952.664-11.987.646-17.771 0-1.529-.171-2.692-1.451-2.692-2.989v-8.099c-10.56-1.76-20.3-5.92-28.67-11.88l-5.728 5.735c-1.09 1.091-2.823 1.171-4.025.206-4.63-3.715-8.843-7.928-12.558-12.558-.965-1.203-.885-2.936.206-4.025l5.735-5.728c-5.97-8.37-10.12-18.12-11.88-28.68h-8.101c-1.539 0-2.818-1.164-2.989-2.693-.653-5.834-.653-11.899.002-17.763.171-1.53 1.45-2.695 2.989-2.695h8.1c.52-3.09 1.24-6.12 2.15-9.06 1.3-4.19 2.98-8.2 5.01-12 1.41-2.65 2.99-5.19 4.72-7.61l-5.738-5.738c-1.09-1.09-1.169-2.822-.204-4.024 3.716-4.631 7.93-8.844 12.561-12.554 1.202-.963 2.933-.883 4.022.206l5.729 5.729c7.34-5.22 15.73-9.06 24.8-11.11l.01 22v44.23l6.72 12.69.01.01 8.71 16.41 8.72-16.41.01-.01 6.71-12.69v-66.23c9.08 2.05 17.47 5.88 24.81 11.11l5.729-5.729c1.089-1.089 2.82-1.169 4.022-.206 4.631 3.71 8.845 7.923 12.561 12.554.964 1.202.885 2.934-.204 4.024l-5.738 5.738c4.18 5.848 7.507 12.445 9.73 19.61.91 2.94 1.63 5.97 2.15 9.06h8.1c1.539 0 2.819 1.165 2.989 2.694.654 5.857.654 11.922.001 17.763-.172 1.53-1.452 2.694-2.99 2.694z" fill="#fc5d3d"/><path d="m128 179.118c-11.463 0-22.691-3.095-32.473-8.949-1.185-.71-1.57-2.245-.861-3.43.711-1.185 2.246-1.568 3.43-.861 9.005 5.391 19.346 8.24 29.904 8.24 51.498 0 78.048-62.662 41.214-99.499-.977-.977-.977-2.56 0-3.535.977-.977 2.559-.977 3.535 0 40.01 40.013 11.111 108.034-44.749 108.034zm-40.925-15.009c-1.313-1.116-2.601-2.303-3.824-3.527-.977-.977-.977-2.559 0-3.535s2.559-.977 3.535 0c1.129 1.129 2.315 2.223 3.527 3.252 1.052.895 1.18 2.472.286 3.524-.893 1.051-2.47 1.18-3.524.286z" fill="#ffcbc3"/><path d="m176.27 115.836c0 26.65-21.61 48.26-48.27 48.26s-48.27-21.61-48.27-48.26c0-21.26 13.74-39.31 32.83-45.74v44.23l6.72 12.69.01.01 8.71 16.41 8.72-16.41.01-.01 6.71-12.69v-44.23c19.09 6.43 32.83 24.48 32.83 45.74z" fill="#efefef"/><path d="m143.44 18.646v95.68l-6.71 12.69-.01.01-8.72 16.41-8.71-16.41-.01-.01-6.72-12.69v-44.23l-.01-22v-29.45c0-5.53 4.48-10 10-10h10.89c5.53 0 10 4.47 10 10z" fill="#72c2e9"/><path d="m133.444 8.641h-10.89c-5.523 0-10 4.477-10 10v14.667h30.89v-14.667c0-5.523-4.477-10-10-10z" fill="#fc5d3d"/><path d="m143.44 114.326-6.71 12.69-.01.01-8.72 16.41-8.71-16.41-.01-.01-6.72-12.69z" fill="#f0c020"/><path d="m136.73 127.016-.01.01-8.72 16.41-8.71-16.41-.01-.01z" fill="#878787"/><path d="m243 219.276h-5v-121.08c0-9.65-7.851-17.5-17.5-17.5h-29.705c-.911-1.629-1.88-3.246-2.936-4.82l4.261-4.26c1.985-1.987 2.151-5.174.39-7.36-3.83-4.77-8.18-9.12-12.95-12.939-2.171-1.747-5.346-1.614-7.35.39l-4.25 4.26c-6.771-4.525-14.17-7.815-22.021-9.822 0-15.58 0-12.288 0-27.498v-.011c0-6.849-5.59-12.489-12.5-12.489h-10.89c-6.89 0-12.5 5.6-12.5 12.489 0 9.952.002 22.551.003 27.507-7.826 1.999-15.225 5.288-22.013 9.823l-4.25-4.26c-1.928-1.926-5.082-2.203-7.36-.39-4.75 3.819-9.11 8.17-12.939 12.939-1.805 2.241-1.56 5.429.39 7.36l4.26 4.26c-1.055 1.567-2.026 3.188-2.942 4.82h-29.698c-9.65 0-17.5 7.85-17.5 17.5v36.89c0 1.38 1.12 2.5 2.5 2.5s2.5-1.12 2.5-2.5v-36.89c.01-6.88 5.62-12.49 12.5-12.5h27.14c-1.05 2.277-1.978 4.616-2.787 7h-22.353c-4.13 0-7.5 3.37-7.5 7.5v119.08h-7v-64.19c0-1.38-1.12-2.5-2.5-2.5s-2.5 1.12-2.5 2.5v64.19h-5c-4.141 0-7.5 3.37-7.5 7.5v5.75c0 9.649 7.85 17.5 17.5 17.5h170c1.38 0 2.5-1.12 2.5-2.5s-1.12-2.5-2.5-2.5h-170c-6.88-.011-12.49-5.62-12.5-12.5v-5.75c0-1.37 1.12-2.5 2.5-2.5h84.5v5.38c0 4.13 3.359 7.5 7.5 7.5h46c4.13 0 7.5-3.37 7.5-7.5v-5.38h84.5c1.37 0 2.5 1.13 2.5 2.5v5.75c-.01 6.88-5.62 12.489-12.5 12.5h-20c-1.38 0-2.5 1.12-2.5 2.5s1.12 2.5 2.5 2.5h20c9.649 0 17.5-7.851 17.5-17.5v-5.75c0-4.129-3.37-7.499-7.5-7.499zm-120.45-208.13h10.89c4.13 0 7.5 3.369 7.5 7.5v12.159c-30.7 0-24.34 0-25.888 0l-.001-12.159c.009-4.13 3.369-7.49 7.499-7.5zm-1.77 113.37-4.069-7.689h22.578l-4.068 7.689zm11.785 5-4.565 8.59-4.558-8.591h9.123zm-17.506-17.69-.008-76.021h10.453v76.021zm15.446 0v-76.02h10.435v76.021h-10.435zm-20.445 2.5c0 .355.156.906.29 1.17 7.141 13.485 3.376 6.388 15.44 29.11.95 1.771 3.467 1.773 4.42 0 14.781-27.838 4.405-8.242 15.439-29.11.164-.316.29-.77.29-1.17v-40.606c16.787 7.132 27.83 23.638 27.83 42.116 0 25.35-20.534 45.76-45.77 45.76-25.353 0-45.771-20.524-45.771-45.76-.009-18.474 11.037-34.984 27.826-42.112zm43.44 115.33c0 1.37-1.12 2.5-2.5 2.5h-46c-1.38 0-2.5-1.13-2.5-2.5v-5.38h51zm67.5-10.38c-7.446 0-178.057 0-186 0v-119.08c0-1.37 1.12-2.5 2.5-2.5h20.849c-.347 1.346-.664 2.701-.929 4.06h-6.021c-2.81 0-5.17 2.12-5.47 4.92-.674 5.909-.682 12.258-.01 18.311.31 2.8 2.67 4.92 5.479 4.92h6.141c1.38 0 2.5-1.12 2.5-2.5 0-1.37-1.12-2.49-2.49-2.5h-.01-6.15c-.25 0-.46-.2-.5-.48-.636-5.754-.619-11.665.01-17.2.03-.27.24-.47.5-.47h8.101c1.229 0 2.26-.88 2.47-2.09 1.706-10.27 5.787-19.723 11.45-27.63.71-.99.59-2.35-.271-3.22l-5.739-5.73c-.194-.213-.19-.485-.03-.689 3.6-4.49 7.7-8.591 12.18-12.171.201-.179.496-.172.69.021l5.729 5.729c.84.841 2.24.961 3.221.271 6.387-4.555 13.396-7.887 20.853-9.943l.002 17.035c-19.133 7.225-32.825 25.708-32.825 47.499 0 28.039 22.734 50.76 50.771 50.76 28.044 0 50.77-22.725 50.77-50.76 0-21.617-13.536-40.226-32.83-47.501v-17.03c7.48 2.063 14.489 5.395 20.86 9.941.97.69 2.37.57 3.22-.271l5.73-5.729c.198-.198.476-.187.689-.03 4.48 3.59 8.57 7.69 12.17 12.17.168.21.164.506-.029.7l-5.73 5.73c-.87.87-.979 2.22-.27 3.22 5.857 8.183 9.798 17.687 11.45 27.63.199 1.21 1.239 2.09 2.47 2.09h8.1c.26 0 .47.2.5.47.621 5.49.659 11.362 0 17.211-.03.27-.24.47-.5.47h-8.1c-1.23 0-2.271.88-2.47 2.09-1.641 9.89-5.601 19.44-11.45 27.64-.71 1-.601 2.351.27 3.221l5.74 5.729c.172.172.199.467.01.7-3.58 4.47-7.68 8.56-12.16 12.16-.199.16-.488.17-.699-.021l-5.721-5.739c-.84-.841-2.25-.961-3.22-.271-8.33 5.93-17.62 9.78-27.63 11.45-1.21.21-2.09 1.24-2.09 2.47v8.101c0 .26-.2.47-.48.5-5.66.63-11.54.63-17.21 0-.27-.03-.47-.25-.47-.5v-8.101c0-1.229-.88-2.26-2.09-2.46-10.011-1.68-19.3-5.53-27.63-11.46-.971-.69-2.381-.57-3.221.271l-5.729 5.739c-.183.183-.484.185-.69.021-4.49-3.601-8.58-7.7-12.17-12.17-.165-.207-.182-.488.021-.69l5.729-5.729c.87-.87.99-2.221.28-3.221-2.49-3.479-4.63-7.199-6.39-11.069-.561-1.21-2.091-1.79-3.311-1.24-1.303.598-1.801 2.096-1.24 3.32 1.601 3.51 3.5 6.92 5.66 10.14l-4.26 4.26c-1.953 1.934-2.193 5.099-.39 7.36 3.819 4.76 8.18 9.12 12.939 12.939 2.17 1.749 5.375 1.614 7.36-.39l4.26-4.26c7.9 5.29 16.61 8.899 25.87 10.729v6.011c0 2.81 2.11 5.159 4.91 5.47 5.876.661 12.148.698 18.33 0 2.8-.311 4.92-2.66 4.92-5.47v-6.011c9.26-1.83 17.97-5.439 25.87-10.729l4.26 4.26c1.97 1.97 5.149 2.165 7.35.39 4.771-3.819 9.13-8.18 12.95-12.939 1.805-2.285 1.545-5.443-.39-7.36l-4.261-4.26c5.28-7.88 8.891-16.59 10.721-25.88h6.02c2.811 0 5.17-2.12 5.48-4.92.67-6.128.667-12.309-.011-18.311-.3-2.8-2.659-4.92-5.47-4.92h-6.02c-.27-1.362-.588-2.717-.934-4.06h20.856c1.37 0 2.5 1.13 2.5 2.5zm12 0h-7v-119.08c0-4.13-3.37-7.5-7.5-7.5h-22.354c-.809-2.381-1.736-4.72-2.789-7h27.143c6.88.01 12.49 5.62 12.5 12.5z"/><circle cx="203" cy="247.526" r="2.5"/><circle cx="20.5" cy="145.086" r="2.5"/><path d="m63.68 134.546c-.37-1.29-1.8-2.09-3.09-1.71-1.399.41-2.083 1.848-1.71 3.08v.021c.388 1.328 1.814 2.093 3.1 1.699 1.32-.38 2.08-1.77 1.7-3.09z"/></svg>