<?xml version="1.0" encoding="UTF-8"?>
<svg xmlns="http://www.w3.org/2000/svg" xmlns:xlink="http://www.w3.org/1999/xlink" width="88px" height="50px" viewBox="0 0 88 50" version="1.1">
<g id="surface1">
<path style=" stroke:none;fill-rule:nonzero;fill:rgb(0%,0%,0%);fill-opacity:1;" d="M 56.09375 14.203125 C 55.253906 14.257812 52.742188 14.59375 52.179688 14.710938 C 51.890625 14.78125 51.417969 14.871094 51.117188 14.929688 C 50.472656 15.046875 50.335938 15.117188 50.335938 15.335938 C 50.335938 15.578125 50.808594 15.972656 51.082031 15.972656 C 51.222656 15.972656 51.371094 16.007812 51.40625 16.042969 C 51.453125 16.089844 51.625 16.132812 51.796875 16.144531 C 51.980469 16.15625 52.351562 16.285156 52.640625 16.410156 C 52.925781 16.539062 53.570312 16.816406 54.078125 17.003906 C 54.585938 17.199219 55.335938 17.582031 55.738281 17.847656 C 56.152344 18.125 56.613281 18.414062 56.761719 18.507812 C 56.921875 18.589844 57.246094 18.878906 57.488281 19.144531 C 57.742188 19.398438 58.375 20.082031 58.917969 20.660156 L 59.90625 21.703125 L 59.386719 21.757812 C 58.789062 21.839844 58.640625 21.933594 58.835938 22.128906 C 59.007812 22.304688 60.910156 22.105469 62.9375 21.703125 C 64.261719 21.433594 67.128906 20.566406 67.902344 20.207031 C 68.085938 20.117188 68.511719 19.929688 68.820312 19.792969 C 69.871094 19.339844 70.480469 18.855469 70.617188 18.34375 C 70.953125 17.117188 70.101562 16.367188 67.277344 15.429688 C 66.609375 15.207031 65.722656 14.953125 65.308594 14.871094 C 64.894531 14.78125 64.203125 14.640625 63.753906 14.535156 C 62.292969 14.222656 58.214844 14.050781 56.09375 14.203125 Z M 61.75 14.652344 C 66.195312 15.195312 69.628906 16.367188 70.179688 17.511719 C 70.355469 17.859375 70.355469 17.90625 70.101562 18.34375 C 69.949219 18.597656 69.730469 18.855469 69.617188 18.921875 C 69.5 18.980469 69.328125 19.121094 69.226562 19.222656 C 69.03125 19.445312 67.726562 19.953125 66.171875 20.429688 C 65.609375 20.589844 64.882812 20.820312 64.558594 20.914062 C 63.867188 21.121094 62.878906 21.285156 61.851562 21.367188 C 61.4375 21.390625 60.953125 21.46875 60.769531 21.527344 C 60.332031 21.679688 60.242188 21.679688 60.242188 21.492188 C 60.242188 21.273438 59.894531 20.601562 59.792969 20.601562 C 59.5625 20.601562 58.511719 19.492188 57.589844 18.285156 C 57.027344 17.558594 56.441406 16.828125 56.265625 16.667969 C 55.96875 16.378906 55.957031 16.378906 55.792969 16.609375 C 55.691406 16.746094 55.65625 16.957031 55.691406 17.140625 L 55.761719 17.453125 L 55.023438 17.058594 C 54.34375 16.703125 53.203125 16.214844 51.808594 15.695312 C 51.5 15.578125 51.257812 15.441406 51.257812 15.394531 C 51.257812 15.207031 51.695312 15.046875 52.210938 15.046875 C 52.488281 15.046875 53.019531 14.988281 53.398438 14.917969 C 55.65625 14.492188 59.445312 14.363281 61.75 14.652344 Z M 61.75 14.652344 "/>
<path style=" stroke:none;fill-rule:nonzero;fill:rgb(0%,0%,0%);fill-opacity:1;" d="M 74.570312 17.535156 C 73.71875 17.71875 73.199219 17.972656 72.242188 18.679688 C 70.734375 19.804688 70.90625 20.972656 72.644531 21.480469 C 73.371094 21.691406 73.980469 21.667969 77.113281 21.296875 C 78.128906 21.179688 79.648438 21.042969 80.5 20.996094 C 83.117188 20.867188 82.851562 20.71875 80.109375 20.777344 C 78.578125 20.808594 76.746094 20.925781 75.480469 21.078125 C 73.476562 21.320312 73.359375 21.332031 72.863281 21.132812 C 72.105469 20.84375 71.757812 20.53125 71.757812 20.128906 C 71.757812 19.941406 71.804688 19.792969 71.851562 19.792969 C 71.910156 19.792969 72.011719 19.652344 72.09375 19.480469 C 72.195312 19.246094 72.265625 19.214844 72.359375 19.304688 C 72.761719 19.710938 75.144531 19.121094 75.941406 18.425781 C 76.148438 18.242188 76.195312 17.871094 76.042969 17.628906 C 75.894531 17.394531 75.328125 17.359375 74.570312 17.535156 Z M 75.328125 18.03125 C 75.328125 18.148438 74.179688 18.808594 73.796875 18.910156 C 73.636719 18.945312 73.464844 18.933594 73.429688 18.867188 C 73.394531 18.796875 73.234375 18.785156 73.070312 18.820312 C 72.644531 18.921875 72.738281 18.785156 73.292969 18.507812 C 74.167969 18.042969 75.328125 17.777344 75.328125 18.03125 Z M 75.328125 18.03125 "/>
<path style=" stroke:none;fill-rule:nonzero;fill:rgb(0%,0%,0%);fill-opacity:1;" d="M 20.203125 18.726562 C 19.003906 19.234375 18.441406 19.570312 17.820312 20.128906 C 17.300781 20.601562 16.792969 21.539062 16.886719 21.839844 C 17.207031 22.824219 17.460938 23.019531 18.878906 23.367188 C 19.410156 23.507812 19.867188 23.609375 19.890625 23.609375 C 20.15625 23.609375 18.761719 24.722656 16.390625 26.378906 C 15.367188 27.09375 14.386719 27.8125 14.214844 27.972656 C 14.03125 28.136719 13.730469 28.34375 13.546875 28.4375 C 13.351562 28.519531 13.003906 28.714844 12.796875 28.84375 C 12.441406 29.0625 11.425781 29.292969 10.792969 29.292969 C 10.480469 29.292969 10.621094 29.535156 11 29.664062 C 11.207031 29.734375 11.390625 29.734375 11.507812 29.664062 C 11.609375 29.59375 11.863281 29.503906 12.070312 29.457031 C 12.542969 29.351562 12.980469 29.109375 14.558594 28.007812 C 15.238281 27.535156 16.253906 26.851562 16.804688 26.480469 C 17.347656 26.121094 17.785156 25.777344 17.761719 25.695312 C 17.75 25.625 17.773438 25.589844 17.832031 25.625 C 17.957031 25.695312 18.300781 25.464844 19.511719 24.503906 C 20.539062 23.691406 20.722656 23.621094 21.527344 23.832031 C 21.757812 23.902344 22.414062 24.050781 22.980469 24.179688 C 26.019531 24.839844 25.871094 24.792969 26.007812 25.105469 C 26.367188 25.9375 26.355469 25.960938 25.375 26.367188 C 24.878906 26.574219 24.382812 26.734375 24.28125 26.734375 C 24.175781 26.734375 23.578125 26.910156 22.957031 27.128906 C 22.335938 27.347656 21.332031 27.671875 20.734375 27.847656 C 19.546875 28.195312 18.542969 28.632812 18.542969 28.820312 C 18.542969 28.992188 18.808594 28.957031 19.375 28.714844 C 19.648438 28.597656 20.109375 28.460938 20.386719 28.414062 C 20.675781 28.367188 21.171875 28.230469 21.480469 28.101562 C 21.804688 27.972656 22.804688 27.640625 23.726562 27.359375 C 25.9375 26.703125 26.226562 26.585938 26.675781 26.226562 C 27.472656 25.589844 27.242188 24.976562 26.042969 24.527344 C 25.398438 24.28125 21.550781 23.378906 21.171875 23.378906 C 20.917969 23.378906 20.90625 23.230469 21.125 23.03125 C 21.46875 22.753906 22.667969 20.867188 22.851562 20.335938 C 23.09375 19.59375 23.082031 19.257812 22.785156 18.773438 C 22.542969 18.378906 22.53125 18.378906 21.863281 18.4375 C 21.480469 18.472656 21.214844 18.449219 21.261719 18.390625 C 21.34375 18.253906 21.390625 18.242188 20.203125 18.726562 Z M 22.230469 19.433594 C 22.230469 19.804688 21.792969 21.25 21.515625 21.792969 C 21.390625 22.046875 21.089844 22.464844 20.835938 22.742188 C 20.410156 23.207031 20.351562 23.242188 20.007812 23.136719 C 19.800781 23.078125 19.464844 23.007812 19.246094 22.972656 C 18.730469 22.90625 18.09375 22.695312 17.761719 22.476562 C 17.519531 22.316406 17.507812 22.292969 17.691406 22.09375 C 17.796875 21.980469 17.84375 21.839844 17.808594 21.78125 C 17.679688 21.574219 18.003906 20.902344 18.476562 20.40625 C 19.351562 19.46875 20.167969 19.121094 21.445312 19.144531 C 22.195312 19.15625 22.230469 19.167969 22.230469 19.433594 Z M 22.230469 19.433594 "/>
<path style=" stroke:none;fill-rule:nonzero;fill:rgb(0%,0%,0%);fill-opacity:1;" d="M 45.441406 22.316406 C 45.117188 22.429688 44.703125 22.628906 44.519531 22.765625 C 44.277344 22.929688 44.070312 22.984375 43.851562 22.953125 C 43.597656 22.90625 43.457031 22.972656 43.101562 23.355469 C 42.375 24.144531 41.800781 24.292969 41.292969 23.84375 C 40.980469 23.566406 40.625 23.390625 40.359375 23.378906 C 40.246094 23.378906 39.921875 23.34375 39.65625 23.308594 C 39.253906 23.253906 39.117188 23.285156 38.792969 23.53125 C 38.550781 23.714844 38.066406 23.890625 37.433594 24.015625 C 36.894531 24.121094 36.167969 24.316406 35.820312 24.445312 C 35.476562 24.570312 35.109375 24.699219 35.015625 24.722656 C 34.902344 24.757812 34.726562 24.535156 34.453125 24.015625 C 34.003906 23.136719 33.726562 23.03125 33.472656 23.667969 C 33.355469 23.921875 33.195312 24.097656 33.011719 24.144531 C 32.675781 24.222656 32.320312 24.003906 32.414062 23.773438 C 32.4375 23.703125 32.355469 23.597656 32.214844 23.566406 C 31.8125 23.460938 31.789062 23.472656 31.789062 23.84375 C 31.789062 24.109375 31.710938 24.222656 31.433594 24.375 C 31.019531 24.582031 30.417969 24.515625 30.628906 24.257812 C 30.71875 24.15625 30.558594 24.074219 29.914062 23.910156 L 29.082031 23.714844 L 28.65625 24.179688 C 28.152344 24.722656 28.070312 25.253906 28.449219 25.464844 C 28.738281 25.625 29.0625 25.53125 29.671875 25.117188 C 30.074219 24.847656 30.234375 24.804688 30.671875 24.847656 C 31.078125 24.894531 31.296875 24.847656 31.652344 24.652344 C 32.089844 24.410156 32.125 24.398438 32.378906 24.582031 C 32.527344 24.6875 32.734375 24.769531 32.851562 24.769531 C 33.171875 24.769531 33.621094 24.515625 33.691406 24.28125 C 33.804688 23.945312 33.980469 24.039062 34.222656 24.582031 C 34.441406 25.082031 34.441406 25.09375 34.199219 25.625 C 33.761719 26.632812 33.792969 28.042969 34.3125 29.628906 C 34.484375 30.171875 34.578125 30.277344 34.890625 30.371094 C 35.382812 30.507812 35.558594 30.324219 35.71875 29.457031 C 35.925781 28.355469 35.613281 25.84375 35.210938 25.359375 C 35.109375 25.242188 35.132812 25.171875 35.304688 25.046875 C 35.546875 24.859375 37.367188 24.257812 38.035156 24.132812 C 38.425781 24.0625 38.472656 24.074219 38.632812 24.410156 C 38.746094 24.617188 38.910156 24.769531 39.035156 24.769531 C 39.230469 24.769531 39.796875 24.375 40.246094 23.933594 C 40.464844 23.714844 40.71875 23.773438 40.992188 24.121094 C 41.199219 24.363281 41.878906 24.570312 42.179688 24.46875 C 42.316406 24.433594 42.675781 24.15625 42.976562 23.878906 C 43.445312 23.4375 43.585938 23.367188 43.839844 23.425781 C 44.082031 23.496094 44.289062 23.414062 44.773438 23.078125 C 45.210938 22.777344 45.554688 22.640625 45.933594 22.605469 C 46.441406 22.558594 46.511719 22.582031 47.050781 23.089844 C 47.777344 23.773438 48.398438 24.097656 48.871094 24.050781 C 49.367188 24.003906 49.253906 23.820312 48.652344 23.65625 C 48.355469 23.589844 47.9375 23.332031 47.558594 22.984375 C 46.648438 22.164062 46.234375 22.035156 45.441406 22.316406 Z M 39.96875 23.773438 C 39.96875 23.796875 39.785156 23.933594 39.554688 24.085938 C 39.207031 24.292969 39.117188 24.304688 39.035156 24.179688 C 38.964844 24.0625 39.023438 23.980469 39.253906 23.878906 C 39.566406 23.738281 39.96875 23.679688 39.96875 23.773438 Z M 29.683594 24.316406 L 30.003906 24.445312 L 29.730469 24.664062 C 29.578125 24.78125 29.371094 24.882812 29.269531 24.882812 C 29.164062 24.882812 29.015625 24.941406 28.945312 25.011719 C 28.808594 25.152344 28.566406 25.058594 28.566406 24.871094 C 28.566406 24.722656 29.09375 24.191406 29.246094 24.191406 C 29.300781 24.191406 29.5 24.246094 29.683594 24.316406 Z M 34.878906 26.410156 C 35.152344 27.535156 35.371094 29.132812 35.304688 29.515625 L 35.222656 29.917969 L 34.957031 29.582031 C 34.394531 28.878906 34.082031 26.828125 34.429688 26.179688 C 34.625 25.808594 34.738281 25.867188 34.878906 26.410156 Z M 34.878906 26.410156 "/>
<path style=" stroke:none;fill-rule:nonzero;fill:rgb(0%,0%,0%);fill-opacity:1;" d="M 10.828125 28.890625 C 10.828125 28.980469 10.886719 29.027344 10.941406 28.992188 C 11.011719 28.957031 11.058594 28.878906 11.058594 28.808594 C 11.058594 28.75 11.011719 28.703125 10.941406 28.703125 C 10.886719 28.703125 10.828125 28.785156 10.828125 28.890625 Z M 10.828125 28.890625 "/>
</g>
</svg>
