<svg enable-background="new 0 0 512 512" viewBox="0 0 512 512" xmlns="http://www.w3.org/2000/svg" width="20px" height="20px"><path d="m352.966 400.089.03.008c-13.08-20.624-12.24-28.911-12.24-36.246 0-12.502-38.136 3.06-54.538-14.73-2.797-3.03-.495-7.927 3.615-7.612 19.634 1.53 42.786-2.535 42.786-9.93 0-5.22-11.55-17.107-15.547-30.404 23.572-1.732 56.51-7.792 46.378-23.714-11.43-17.969-49.356-76.265-37.506-116.246 1.47-3.585 3.015-7.125 4.642-10.627.015-.023.022-.038.038-.06l-.015.023c20.722-44.556 54.156-82.002 95.637-107.741 7.207-4.47 6.284-15.157-1.568-18.367-28.972-11.821-60.606-18.443-93.829-18.443-138.07 0-249.996 111.934-249.996 250.004s111.926 249.996 249.996 249.996c32.902 0 64.235-6.495 92.974-18.097 8.205-3.307 9.165-14.49 1.665-19.184-28.514-17.827-53.196-41.211-72.522-68.63" fill="#fde364"/><path d="m234.328 182.415c-10.845 0-19.635 8.79-19.635 19.634v24.134c0 10.837 8.79 19.634 19.635 19.634 10.844 0 19.634-8.797 19.634-19.634v-24.133c0-10.845-8.79-19.635-19.634-19.635" fill="#2c3c47"/><path d="m257.365 159.609c-2.116 0-4.203-.976-5.545-2.818-4.328-5.939-10.697-9.346-17.476-9.35-.002 0-.005 0-.007 0-6.786 0-13.165 3.409-17.503 9.353-2.232 3.058-6.519 3.727-9.579 1.496-3.057-2.231-3.727-6.519-1.496-9.577 6.949-9.52 17.365-14.98 28.578-14.98h.013c11.208.003 21.613 5.465 28.549 14.984 2.23 3.06 1.557 7.347-1.502 9.577-1.218.888-2.631 1.315-4.032 1.315z" fill="#fbb436"/></svg>