<svg viewBox="0 0 256 256" xmlns="http://www.w3.org/2000/svg" width="48px" height="48px"><path d="m190.08 57.03c-3.45-.52-6.99-.78-10.58-.78-39.63 0-71.75 32.12-71.75 71.75s32.12 71.75 71.75 71.75c3.59 0 7.13-.26 10.58-.78 34.61-5.11 61.17-34.93 61.17-70.97s-26.56-65.86-61.17-70.97zm0 86.44c-3.01 2.07-6.66 3.28-10.58 3.28-10.34 0-18.75-8.41-18.75-18.75s8.41-18.75 18.75-18.75c3.92 0 7.57 1.21 10.58 3.28 4.93 3.38 8.17 9.05 8.17 15.47s-3.24 12.09-8.17 15.47z" fill="#40c4df"/><path d="m160.75 128c0 12.024 11.239 21.009 23 18.26v53.37c-41.66 2.366-76-30.662-76-71.63 0-40.947 34.318-73.997 76-71.63v53.37c-11.759-2.749-23 6.236-23 18.26z" fill="#1c868e"/><path d="m174.75 48v160c0 2.76-2.24 5-5 5h-160c-2.76 0-5-2.24-5-5v-160c0-2.76 2.24-5 5-5h160c2.76 0 5 2.24 5 5z" fill="#d8d6d7"/><path d="m174.75 48v160c0 2.76-2.24 5-5 5h-150.5c-2.76 0-5-2.24-5-5v-160c0-2.76 2.24-5 5-5h150.5c2.76 0 5 2.24 5 5z" fill="#fff"/><path d="m158.93 111.39h-13.18c-1.15-3.87-2.7-7.65-4.67-11.26l9.32-9.32c2.27-2.26 2.27-5.96 0-8.23l-15.25-15.23c-2.27-2.27-5.95-2.27-8.23 0l-9.31 9.31c-3.62-1.97-7.4-3.52-11.27-4.66v-13.18c0-3.21-2.61-5.82-5.83-5.82h-21.54c-3.22 0-5.83 2.61-5.83 5.82v13.18c-3.87 1.14-7.64 2.7-11.26 4.66l-9.32-9.31c-2.26-2.27-5.96-2.27-8.22 0l-15.24 15.23c-2.27 2.27-2.27 5.97 0 8.23l9.31 9.32c-2.14 3.93-3.78 8.04-4.94 12.27h-12.9c-3.21 0-5.82 2.61-5.82 5.82v21.55c0 3.21 2.61 5.82 5.82 5.82h13.49c1.09 3.53 2.55 6.97 4.35 10.26l-9.31 9.32c-2.27 2.28-2.27 5.96 0 8.23l15.24 15.25c2.26 2.27 5.96 2.27 8.22 0l9.32-9.32c3.62 1.96 7.39 3.51 11.26 4.67v13.18c0 3.21 2.61 5.82 5.83 5.82h21.54c3.22 0 5.83-2.61 5.83-5.82v-13.18c3.87-1.16 7.66-2.71 11.28-4.67l9.3 9.32c2.28 2.27 5.96 2.27 8.23 0l15.25-15.25c2.27-2.27 2.27-5.95 0-8.23l-9.32-9.3c1.97-3.62 3.52-7.41 4.67-11.28h13.18c3.21 0 5.82-2.61 5.82-5.83v-21.54c0-3.22-2.61-5.83-5.82-5.83zm-69.18 52.01c-19.63 0-35.4-15.93-35.4-35.4 0-19.65 15.94-35.41 35.4-35.41 19.55 0 35.4 15.85 35.4 35.41 0 19.62-15.9 35.4-35.4 35.4z" fill="#40c4df"/><g fill="#491352"><path d="m76.783 111.824c-8.918 0-15.925 6.689-15.925 16.199s7.007 16.198 15.925 16.198c8.964 0 15.926-6.688 15.926-16.198s-6.962-16.199-15.926-16.199zm0 28.802c-6.688 0-11.693-4.868-11.693-12.604 0-7.781 5.005-12.604 11.693-12.604 6.689 0 11.694 4.823 11.694 12.604 0 7.736-5.005 12.604-11.694 12.604z"/><path d="m96.301 120.56c0 11.785 17.154 6.325 17.154 14.88 0 3.003-2.366 5.277-6.37 5.277-3.572 0-5.475-1.728-6.216-3.785-.319-.887-1.136-1.492-2.078-1.492h-.026c-1.509 0-2.634 1.505-2.086 2.911 1.4 3.594 5.305 5.87 10.406 5.87 6.871 0 10.557-4.459 10.557-8.964 0-11.739-17.109-6.643-17.109-14.833 0-3.413 2.685-5.188 6.098-5.097 3.056.036 4.948 1.55 5.742 3.239.378.805 1.143 1.357 2.032 1.357 1.669 0 2.729-1.783 1.944-3.257-1.598-2.998-4.972-4.888-9.536-4.888-6.28.001-10.512 3.55-10.512 8.782z"/><path d="m89.753 90.594c-20.627 0-37.408 16.781-37.408 37.407 0 20.623 16.781 37.4 37.408 37.4 20.623 0 37.4-16.777 37.4-37.4 0-20.626-16.777-37.407-37.4-37.407zm0 70.807c-18.421 0-33.408-14.983-33.408-33.4 0-18.421 14.987-33.407 33.408-33.407 18.417 0 33.4 14.986 33.4 33.407 0 18.417-14.983 33.4-33.4 33.4z"/><path d="m158.925 109.395h-11.698c-.998-3.083-2.233-6.063-3.688-8.892l8.272-8.273c1.478-1.471 2.293-3.433 2.295-5.523.002-2.095-.813-4.063-2.293-5.543l-15.245-15.228c-3.045-3.045-8.007-3.045-11.063 0l-8.269 8.268c-2.845-1.459-5.827-2.693-8.899-3.683v-11.696c0-4.314-3.511-7.825-7.825-7.825h-21.542c-4.314 0-7.825 3.511-7.825 7.825v11.696c-3.043.981-6.022 2.216-8.89 3.684l-8.275-8.267c-1.473-1.479-3.438-2.295-5.529-2.295-2.093 0-4.058.815-5.527 2.291l-15.238 15.23c-1.479 1.479-2.294 3.447-2.292 5.542.002 2.091.817 4.053 2.291 5.52l8.271 8.278c-1.612 3.149-2.951 6.467-3.991 9.896h-11.39c-4.314 0-7.825 3.506-7.825 7.815v21.552c0 4.314 3.511 7.825 7.825 7.825h12.033c.911 2.695 2.031 5.338 3.344 7.888l-8.27 8.277c-3.043 3.055-3.042 8.017.002 11.061l15.238 15.246c3.046 3.049 8.006 3.049 11.054 0l8.278-8.278c2.84 1.452 5.819 2.688 8.89 3.688v11.701c0 4.314 3.511 7.825 7.825 7.825h21.542c4.314 0 7.825-3.511 7.825-7.825v-11.701c3.088-1.004 6.072-2.239 8.905-3.688l8.269 8.284c3.052 3.027 8.012 3.029 11.058-.006l15.246-15.246c3.045-3.044 3.046-8.006-.001-11.065l-8.275-8.259c1.454-2.834 2.69-5.819 3.688-8.907h11.698c4.314 0 7.825-3.511 7.825-7.825v-21.542c.001-4.315-3.51-7.825-7.824-7.825zm3.825 29.367c0 2.109-1.716 3.825-3.825 3.825h-13.172c-.886 0-1.666.582-1.917 1.432-1.134 3.818-2.651 7.482-4.512 10.888-.426.779-.287 1.747.342 2.375l9.317 9.299c1.489 1.495 1.49 3.922.003 5.41l-15.243 15.243c-1.488 1.483-3.918 1.482-5.408.004l-9.304-9.321c-.627-.627-1.591-.771-2.372-.344-3.406 1.853-7.071 3.372-10.896 4.515-.847.253-1.427 1.032-1.427 1.916v13.172c0 2.109-1.716 3.825-3.825 3.825h-21.541c-2.109 0-3.825-1.716-3.825-3.825v-13.172c0-.884-.58-1.663-1.427-1.916-3.797-1.136-7.457-2.654-10.879-4.515-.3-.164-.629-.243-.954-.243-.519 0-1.03.201-1.415.586l-9.321 9.321c-1.486 1.488-3.908 1.49-5.396 0l-15.239-15.247c-1.487-1.488-1.486-3.915.001-5.408l9.313-9.321c.628-.628.766-1.596.339-2.375-1.731-3.157-3.142-6.482-4.191-9.883-.259-.839-1.034-1.41-1.911-1.41h-13.49c-2.109 0-3.825-1.716-3.825-3.825v-21.552c0-2.104 1.716-3.815 3.825-3.815h12.891c.899 0 1.688-.601 1.928-1.468 1.146-4.146 2.752-8.13 4.774-11.842.425-.778.285-1.743-.341-2.37l-9.316-9.325c-.72-.717-1.116-1.673-1.117-2.693-.001-1.024.396-1.986 1.12-2.709l15.24-15.232c1.435-1.441 3.951-1.446 5.396.004l9.321 9.313c.624.625 1.591.768 2.368.342 3.468-1.885 7.125-3.4 10.871-4.503.851-.251 1.435-1.032 1.435-1.919v-13.174c0-2.109 1.716-3.825 3.825-3.825h21.542c2.109 0 3.825 1.716 3.825 3.825v13.172c0 .887.584 1.668 1.436 1.919 3.792 1.116 7.451 2.631 10.875 4.501.78.426 1.745.286 2.373-.341l9.31-9.31c1.495-1.488 3.922-1.491 5.411-.002l15.245 15.228c.724.724 1.121 1.686 1.12 2.71-.001 1.021-.397 1.977-1.12 2.696l-9.321 9.321c-.628.628-.767 1.596-.34 2.375 1.861 3.398 3.379 7.056 4.511 10.869.252.849 1.031 1.431 1.917 1.431h13.172c2.109 0 3.825 1.716 3.825 3.825v21.543z"/><path d="m179.5 54.25c-.946 0-1.856.021-2.75.054v-6.304c0-3.859-3.141-7-7-7h-160c-3.859 0-7 3.141-7 7v160c0 3.859 3.141 7 7 7h160c3.859 0 7-3.141 7-7v-6.304c.894.034 1.804.054 2.75.054 40.666 0 73.75-33.084 73.75-73.75s-33.084-73.75-73.75-73.75zm-6.75 153.75c0 1.654-1.346 3-3 3h-160c-1.654 0-3-1.346-3-3v-160c0-1.654 1.346-3 3-3h160c1.654 0 3 1.346 3 3zm4-96.516c.903-.15 1.822-.234 2.75-.234 9.236 0 16.75 7.514 16.75 16.75s-7.514 16.75-16.75 16.75c-.928 0-1.847-.084-2.75-.234zm2.75 86.266c-.95 0-1.857-.023-2.75-.059v-49.125c.908.121 1.826.184 2.75.184 11.441 0 20.75-9.309 20.75-20.75s-9.309-20.75-20.75-20.75c-.924 0-1.842.063-2.75.184v-49.125c.893-.036 1.8-.059 2.75-.059 38.46 0 69.75 31.29 69.75 69.75s-31.29 69.75-69.75 69.75z"/></g></svg>