<svg width="50" height="50" viewBox="0 0 50 50" fill="none" xmlns="http://www.w3.org/2000/svg">
<path d="M45 0H5C2.23858 0 0 2.23858 0 5V45C0 47.7614 2.23858 50 5 50H45C47.7614 50 50 47.7614 50 45V5C50 2.23858 47.7614 0 45 0Z" fill="#F4511E"/>
<path d="M30.7312 16.9163L28.5535 21.2932C29.2689 21.9529 29.7739 22.822 29.9738 23.8063H31.6149C31.8043 22.8744 32.2671 22.0367 32.9299 21.3875L30.7312 16.9163Z" fill="white"/>
<path d="M26.7231 20.2356L30.7312 12.1728L34.7288 20.288C34.8867 20.2356 35.0445 20.1937 35.2023 20.1518L39 9H22.4519L26.2391 20.1204C26.3969 20.1518 26.5653 20.1937 26.7231 20.2356Z" fill="white"/>
<path d="M25.3449 27.3664C26.8072 27.3664 27.996 26.1832 27.996 24.7277C27.996 24.1936 27.8382 23.7015 27.5647 23.2826C27.4805 23.1465 27.3753 23.0209 27.2701 22.9057L27.2596 22.8952C27.1544 22.78 27.0282 22.6753 26.9019 22.5915L26.8914 22.5811C26.8598 22.5601 26.8178 22.5287 26.7757 22.5078C26.7652 22.5078 26.7652 22.4973 26.7546 22.4973C26.7126 22.4764 26.6705 22.4449 26.6284 22.424H26.6179C26.5758 22.4031 26.5232 22.3716 26.4811 22.3507H26.4706C26.4285 22.3298 26.3864 22.3088 26.3443 22.2983C26.3338 22.2983 26.3233 22.2879 26.3128 22.2879C26.2812 22.2774 26.2391 22.2565 26.2076 22.246C26.1971 22.246 26.1865 22.2355 26.1655 22.2355C26.1234 22.225 26.0813 22.2041 26.0393 22.1936H26.0287C25.9761 22.1832 25.9341 22.1727 25.8815 22.1622C25.8709 22.1622 25.8604 22.1622 25.8394 22.1517C25.7973 22.1413 25.7657 22.1413 25.7237 22.1308C25.7026 22.1308 25.6921 22.1308 25.6711 22.1203C25.6395 22.1203 25.5974 22.1099 25.5659 22.1099H25.5133H25.3555H25.1977H25.1556C25.1135 22.1099 25.0819 22.1203 25.0399 22.1203H24.9978C24.9557 22.1308 24.9136 22.1308 24.8715 22.1413H24.84C24.7874 22.1517 24.7453 22.1622 24.6927 22.1727C23.5355 22.4554 22.6728 23.5025 22.6728 24.7381C22.6939 26.1727 23.8826 27.3664 25.3449 27.3664Z" fill="white"/>
<path d="M36.4962 22.0891H36.4752C36.4331 22.0891 36.4016 22.0786 36.3595 22.0786H36.2227C36.1701 22.0786 36.1175 22.0786 36.0544 22.0891H36.0018C35.9597 22.0891 35.9176 22.0996 35.8755 22.0996C35.865 22.0996 35.844 22.0996 35.8335 22.11L35.6757 22.1414H35.6651C35.6125 22.1519 35.5705 22.1624 35.5179 22.1729C35.5073 22.1729 35.4863 22.1833 35.4758 22.1833C35.4337 22.1938 35.3916 22.2043 35.3495 22.2252C35.339 22.2252 35.3285 22.2357 35.318 22.2357C35.2654 22.2566 35.2128 22.2776 35.1707 22.2985C35.1181 22.3195 35.076 22.3404 35.0234 22.3613C35.0129 22.3613 35.0024 22.3718 34.9919 22.3718C34.9498 22.3927 34.9077 22.4137 34.8656 22.4451C34.8656 22.4451 34.8551 22.4451 34.8551 22.4556C34.7604 22.5079 34.6657 22.5708 34.5816 22.6441L34.5711 22.6545C34.4343 22.7592 34.3186 22.8744 34.2029 23.0001C34.0871 23.1257 33.9925 23.2723 33.9083 23.4189C33.6874 23.8064 33.5611 24.2566 33.5611 24.7278C33.5611 26.1833 34.7499 27.3666 36.2122 27.3666C37.6745 27.3666 38.8633 26.1833 38.8633 24.7278C38.8633 23.4503 37.9375 22.3718 36.7277 22.131C36.6646 22.11 36.5804 22.0996 36.4962 22.0891Z" fill="white"/>
<path d="M14.3514 27.3664C15.8137 27.3664 17.0025 26.1831 17.0025 24.7276C17.0025 23.2721 15.8137 22.0889 14.3514 22.0889C12.8891 22.0889 11.7004 23.2721 11.7004 24.7276C11.7004 26.1831 12.8891 27.3664 14.3514 27.3664Z" fill="white"/>
<path d="M36.2332 29.4085C34.045 29.4085 32.204 27.9111 31.678 25.9006H29.9106C29.3846 27.9111 27.5436 29.4085 25.3554 29.4085C25.103 29.4085 24.861 29.3875 24.6296 29.3561C24.0194 30.2881 23.2935 31.1467 22.4414 31.9425C20.937 33.3561 19.2328 34.4033 17.3917 35.0629L16.9604 35.22L16.5607 35.0106C14.3514 33.8797 13.2153 31.5865 13.615 29.3666C13.3625 29.3247 13.1206 29.2619 12.8891 29.1781C12.8471 29.2514 12.8155 29.3352 12.7734 29.419C12.1001 30.8012 11.3953 32.2252 11.1428 33.754C10.8693 35.3875 10.7536 38.3718 13.068 39.9635C14.0779 40.6546 15.1404 41.0001 16.3292 41.0001C18.6121 41.0001 21.0738 39.7855 23.6828 38.4975C25.7237 37.4923 27.8277 36.4451 30.0158 35.9111C30.8469 35.7122 31.6885 35.5865 32.4986 35.4713C33.9819 35.2619 35.3916 35.0525 36.5383 34.3928C37.7586 33.6912 38.5897 32.5184 38.8212 31.1781C38.9684 30.3614 38.8843 29.5341 38.6108 28.7697C37.9164 29.1677 37.1064 29.4085 36.2332 29.4085Z" fill="white"/>
</svg>
