<?xml version="1.0" encoding="UTF-8"?>
<svg xmlns="http://www.w3.org/2000/svg" xmlns:xlink="http://www.w3.org/1999/xlink" width="48px" height="48px" viewBox="0 0 47 29" version="1.1">
<g id="surface1">
<path style=" stroke:none;fill-rule:nonzero;fill:rgb(53.72549%,85.098039%,42.745098%);fill-opacity:1;" d="M 25.105469 10.71875 C 25.105469 10.046875 25.457031 9.425781 26.03125 9.089844 C 26.601562 8.753906 27.304688 8.753906 27.875 9.089844 C 29.546875 8.464844 31.410156 8.140625 33.347656 8.140625 C 38.53125 8.140625 42.976562 10.496094 44.480469 13.890625 C 44.46875 14.691406 43.347656 15.066406 42.898438 14.574219 C 41.667969 11.847656 37.773438 9.886719 33.347656 9.886719 C 31.738281 9.886719 30.191406 10.136719 28.792969 10.613281 C 28.832031 11.296875 28.5 11.949219 27.933594 12.3125 C 27.363281 12.675781 26.644531 12.695312 26.058594 12.363281 C 25.46875 12.03125 25.105469 11.402344 25.105469 10.71875 Z M 45.835938 17.707031 C 45.835938 16.886719 45.308594 16.15625 44.539062 15.914062 C 43.765625 15.667969 42.925781 15.964844 42.46875 16.644531 C 42.011719 17.324219 42.039062 18.226562 42.542969 18.871094 C 41.953125 19.796875 41.035156 20.632812 39.863281 21.300781 C 38.046875 22.339844 35.734375 22.910156 33.347656 22.910156 C 31.277344 22.910156 29.292969 22.492188 27.601562 21.703125 C 26.460938 21.167969 25.507812 20.492188 24.800781 19.714844 C 24.328125 19.4375 23.242188 20.328125 23.636719 21.007812 C 25.765625 23.265625 29.382812 24.65625 33.347656 24.65625 C 36.023438 24.65625 38.636719 24.007812 40.703125 22.828125 C 42.214844 21.960938 43.390625 20.84375 44.128906 19.582031 C 45.09375 19.507812 45.835938 18.691406 45.835938 17.707031 Z M 45.835938 17.707031 "/>
<path style=" stroke:none;fill-rule:nonzero;fill:rgb(60%,60%,60%);fill-opacity:1;" d="M 10.277344 21.234375 C 8.59375 19.011719 7.640625 15.878906 7.640625 12.492188 C 7.640625 9.410156 8.441406 6.503906 9.890625 4.304688 C 11.40625 1.996094 13.460938 0.726562 15.675781 0.726562 C 17.691406 0.726562 19.613281 1.808594 21.085938 3.769531 C 22.480469 5.625 23.382812 8.152344 23.636719 10.894531 C 23.039062 10.558594 22.421875 10.257812 21.789062 9.992188 C 21.078125 5.636719 18.558594 2.472656 15.675781 2.472656 C 14.054688 2.472656 12.503906 3.46875 11.3125 5.277344 C 10.050781 7.191406 9.359375 9.753906 9.359375 12.492188 C 9.359375 15.503906 10.230469 18.359375 11.714844 20.265625 C 12.558594 20.183594 13.351562 20.691406 13.636719 21.507812 C 13.921875 22.320312 13.625 23.226562 12.917969 23.703125 C 12.207031 24.179688 11.273438 24.105469 10.648438 23.519531 C 10.023438 22.9375 9.871094 21.992188 10.277344 21.234375 Z M 23.410156 11.96875 C 20.398438 10.195312 17.035156 9.492188 14.253906 9.988281 C 13.648438 9.382812 12.714844 9.277344 11.992188 9.726562 C 11.269531 10.179688 10.945312 11.074219 11.199219 11.894531 C 11.453125 12.71875 12.226562 13.257812 13.074219 13.203125 C 13.921875 13.152344 14.621094 12.515625 14.773438 11.667969 C 17.117188 11.316406 19.960938 11.957031 22.550781 13.484375 C 25.71875 15.34375 27.957031 18.234375 28.394531 20.910156 C 28.941406 21.144531 29.539062 21.34375 30.183594 21.496094 C 30.015625 18.015625 27.390625 14.308594 23.410156 11.96875 Z M 23.867188 26.453125 C 22.203125 26.667969 20.316406 26.402344 18.464844 25.695312 C 17.929688 26.113281 17.367188 26.507812 16.773438 26.871094 C 18.746094 27.789062 20.808594 28.273438 22.722656 28.273438 C 23.1875 28.273438 23.640625 28.246094 24.082031 28.1875 C 26.375 27.890625 28.191406 26.839844 29.238281 25.210938 C 28.644531 25.066406 28.0625 24.886719 27.492188 24.671875 C 26.6875 25.628906 25.429688 26.253906 23.867188 26.453125 Z M 22.027344 19.585938 C 22.875 19.578125 23.609375 18.980469 23.804688 18.140625 C 24 17.300781 23.605469 16.429688 22.851562 16.035156 C 22.097656 15.640625 21.175781 15.820312 20.617188 16.472656 C 20.058594 17.125 20.007812 18.078125 20.496094 18.785156 C 20.144531 19.644531 19.628906 20.507812 18.972656 21.328125 C 17.957031 22.59375 16.625 23.734375 15.113281 24.621094 C 13.003906 25.863281 10.734375 26.527344 8.644531 26.527344 C 8.429688 26.527344 8.210938 26.519531 7.996094 26.503906 C 5.863281 26.359375 4.242188 25.492188 3.433594 24.0625 C 1.996094 21.527344 3.429688 17.714844 6.769531 14.914062 C 6.6875 14.289062 6.636719 13.660156 6.621094 13.03125 L 6.523438 12.898438 C 4.347656 14.492188 2.675781 16.546875 1.8125 18.683594 C 0.898438 20.953125 0.945312 23.171875 1.945312 24.9375 C 3.050781 26.886719 5.160156 28.0625 7.882812 28.25 C 8.132812 28.265625 8.386719 28.273438 8.640625 28.273438 C 11.027344 28.273438 13.601562 27.527344 15.972656 26.136719 C 18.792969 24.476562 20.960938 22.109375 22.027344 19.585938 Z M 22.027344 19.585938 "/>
</g>
</svg>
