<?xml version="1.0" encoding="UTF-8"?>
<svg xmlns="http://www.w3.org/2000/svg" xmlns:xlink="http://www.w3.org/1999/xlink" width="48px" height="48px" viewBox="0 0 48 26" version="1.1">
<g id="surface1">
<path style=" stroke:none;fill-rule:nonzero;fill:rgb(0%,0%,0%);fill-opacity:1;" d="M 14.636719 17.195312 C 17.039062 17.195312 18.988281 15.265625 18.988281 12.882812 C 18.988281 10.503906 17.039062 8.574219 14.636719 8.574219 C 12.234375 8.574219 10.285156 10.503906 10.285156 12.882812 C 10.285156 15.265625 12.234375 17.195312 14.636719 17.195312 Z M 4.351562 25.816406 C 6.753906 25.816406 8.703125 23.886719 8.703125 21.503906 C 8.703125 19.125 6.753906 17.195312 4.351562 17.195312 C 1.949219 17.195312 0 19.125 0 21.503906 C 0 23.886719 1.949219 25.816406 4.351562 25.816406 Z M 43.648438 25.816406 C 46.050781 25.816406 48 23.886719 48 21.503906 C 48 19.125 46.050781 17.195312 43.648438 17.195312 C 41.246094 17.195312 39.296875 19.125 39.296875 21.503906 C 39.296875 23.886719 41.246094 25.816406 43.648438 25.816406 Z M 43.648438 25.816406 "/>
<path style=" stroke:none;fill-rule:nonzero;fill:rgb(81.568627%,0.784314%,10.588235%);fill-opacity:1;" d="M 29.355469 13.066406 C 29.21875 11.625 29.144531 10.425781 28.03125 9.585938 C 26.621094 8.519531 25.023438 9.210938 23.054688 8.507812 C 21.121094 8.042969 19.6875 6.34375 19.6875 4.316406 C 19.6875 1.933594 21.671875 0 24.117188 0 C 25.929688 0 27.488281 1.058594 28.171875 2.578125 C 29.222656 4.554688 28.542969 6.566406 29.859375 7.578125 C 31.421875 8.777344 33.53125 7.898438 35.878906 9.035156 C 36.636719 9.378906 37.273438 9.925781 37.726562 10.601562 C 38.175781 11.277344 38.4375 12.082031 38.4375 12.949219 C 38.4375 14.976562 37.003906 16.675781 35.070312 17.140625 C 33.101562 17.84375 31.503906 17.148438 30.09375 18.21875 C 28.507812 19.417969 29.355469 21.421875 28.0625 23.542969 C 27.328125 24.941406 25.839844 25.894531 24.117188 25.894531 C 21.671875 25.894531 19.6875 23.964844 19.6875 21.578125 C 19.6875 19.847656 20.734375 18.355469 22.246094 17.667969 C 24.59375 16.53125 26.703125 17.410156 28.265625 16.210938 C 29.164062 15.519531 29.355469 14.449219 29.355469 13.066406 Z M 29.355469 13.066406 "/>
</g>
</svg>
